<?xml version="1.0" encoding="utf-8"?>
<!-- Generator: Adobe Illustrator 27.5.0, SVG Export Plug-In . SVG Version: 6.00 Build 0)  -->
<svg version="1.1" id="Capa_1" xmlns="http://www.w3.org/2000/svg" xmlns:xlink="http://www.w3.org/1999/xlink" x="0px" y="0px"
	 viewBox="0 0 2122 2122" style="enable-background:new 0 0 2122 2122;" xml:space="preserve">
<g>
	<path style="fill:#FECC5B;" d="M1396.873,1062.863c113.462-27.516,272.59-70.807,361.707-121.085
		c113.954-64.292,121.034-176.211,105.052-213.305c-49.357-114.547-140.923-89.466-155.948-120.68
		c-9.844-20.453-16.309-60.603-40.953-87.141c-50.446-54.324-93.055-48.353-129.362-69.26
		c-91.791-52.855-63.475-209.321-225.152-143.157c-151.102,61.837-131.116,383.726-170.441,509.56
		c0.833-19.836,1.054-39.705,1.205-59.468c0.436-56.823,1.865-113.541,6.058-170.227c4.194-56.697,11.019-113.014,18.898-169.301
		c6.843-48.884,13.157-103.42-9.381-149.398c-17.165-35.02-51.191-65.793-91.461-68.904c-37.881-2.925-66.929,20.217-91.642,46.101
		c-21.359,22.374-45.739,57.723-80.373,57.057c-22.695-0.437-61.446-12.773-96.245-2.745c-71.236,20.527-78.724,78-120.154,84.229
		c-79.699,11.984-180.42,29.06-167.865,150.837C528.3,705.571,769.809,824.357,839.501,915.574
		c-8.525-4.384-17.068-8.719-25.603-13.009c-50.772-25.519-101.011-51.883-149.999-80.711
		c-48.997-28.834-96.49-59.859-143.49-91.817c-40.818-27.755-86.94-57.534-138.145-57.652
		c-39.001-0.09-81.649,16.819-102.247,51.563c-19.375,32.682-11.464,68.969,0.824,102.58c10.622,29.052,31.546,66.55,15.632,97.319
		c-10.427,20.162-38.628,49.463-45.023,85.109c-13.09,72.969,35.145,105.1,22.412,145.015
		c-24.496,76.782-53.72,174.67,61.054,217.262c157.344,58.388,366.522-99.688,480.457-125.794c-3.305,3.09-6.61,6.18-9.899,9.273
		c-40.583,38.152-81.766,75.529-124.795,110.924c-43.038,35.403-87.587,68.682-132.828,101.194
		c-39.292,28.236-82.232,60.672-99.577,107.773c-13.211,35.875-11.999,80.829,13.053,111.486
		c23.566,28.838,59.636,33.77,94.715,33.771c30.321,0,71.885-6.641,94.856,18.367c15.052,16.386,32.534,52.211,63.199,70.097
		c62.771,36.613,108.588,3.022,141.047,28.18c62.441,48.397,194.579,136.048,272.423,44.721
		c107.659-126.307-4.651-346.898-2.955-505.167c47.891,104.576,115.745,241.16,178.109,315.106
		c84.353,100.018,195.638,86.172,229.114,63.573c103.376-69.789,61.713-155.097,89.59-175.661
		c18.266-13.475,56.515-27.289,78.01-56.436c44.001-59.664,30.214-100.421,44.007-139.982
		c34.873-100.016,193.874-101.277,98.811-247.838C1769.558,1022.743,1547.091,1055.574,1396.873,1062.863z"/>
	<path style="fill:#FFDC75;" d="M766.536,812.702c34.372,28.947,71.687,54.489,107.165,82.045
		c24.789,19.254,69.011,69.984,101.166,68.502c-0.692-35.444-37.32-69.457-23.605-107.175
		c19.293,16.208,31.497,46.424,51.064,65.879c40.992-33-51.899-166.75,1.991-191.34c32.275,40.903,23.326,171.204,74.895,192.159
		c31.553-36.703,25.126-105.434,26.732-149.973c3.971-110.097,3.153-220.44,14.086-330.219
		c4.933-49.531,23.677-127.052-19.854-165.773c-57.534-51.177-62.492,44.951-98.941,65.581
		c-15.101-10.587-28.063-39.633-47.123-19.808c-9.762,10.155,0.772,33.732,2.417,44.328c5.295,34.116,14.715,74.284-1.905,106.823
		c-30.478-25.813-22.693-86.137-56.382-116.797c-30.411-27.678-24.497-9.203-54.256,2.53c-26.48,10.44-37.33-15.963-57.15-8.659
		c-17.175,6.328-9.469,43.35-39.443,46.311c2.889,45.454,34.38,90.315,36.769,137.479
		c-44.423-32.089-42.012-101.043-105.161-110.886c-32.85-5.12-35.967,9.217-59.418,26.723c-22.212,16.581-44.78,9.801-65.157,21.271
		c10.589,27.443,42.592,59.257,23.734,82.699c-6.071,7.545-20.375-3.368-24.934,8.885c-4.033,10.841,7.122,21.212,7.119,24.162
		C626.88,665.11,687.407,746.062,766.536,812.702z"/>
	<path style="fill:#FFDC75;" d="M1233.73,906.359c-6.117,24.443-27.931,48.653-36.847,74.766
		c47.624,22.39,127.155-119.712,172.87-82.043c-22.627,46.933-143.677,95.978-139.919,151.515
		c46.817,12.282,105.784-23.609,146.524-41.678c100.707-44.667,199.537-93.747,303.008-132.017
		c46.686-17.267,124.582-34.382,140.318-90.477c20.796-74.141-67.787-36.48-102.302-60.206c2.901-18.214,23.332-42.591-2.84-51.038
		c-13.405-4.327-29.984,15.474-38.788,21.594c-28.347,19.707-60.327,45.773-96.859,45.089c9.85-38.706,67.488-58.138,80.288-101.854
		c11.556-39.463-2.46-26.053-26.045-47.663c-20.987-19.229-2.006-40.55-17.255-55.168c-13.214-12.666-43.117,10.482-58.911-15.166
		c-39.594,22.512-66.123,70.475-107.473,93.285c9.382-53.991,72.423-82.035,53.602-143.113
		c-9.79-31.773-24.043-28.293-50.054-41.703c-24.636-12.702-28.43-35.959-47.668-49.251c-20.029,21.543-34.606,64.249-63.941,57.567
		c-9.443-2.151-5.898-19.79-18.91-18.52c-11.512,1.124-15.948,15.695-18.6,16.985c-40.662,93.834-86.912,183.71-112.146,284.037
		c-10.961,43.579-17.572,88.313-26.799,132.278c-6.447,30.72-32.673,92.698-17.253,120.952
		C1179.29,958.384,1193.816,910.555,1233.73,906.359z"/>
	<path style="fill:#FFDC75;" d="M1660.813,1173.374c-109.077-16.53-215.797-44.586-323.461-67.941
		c-43.554-9.448-108.567-32.657-151.927-11.152c7.563,55.148,136.035,78.672,167.695,120.052
		c-37.142,46.144-143.794-76.914-185.9-45.347c14.018,23.768,40.281,43.059,51.22,65.758c-39.937,3.972-63.846-39.926-98.019-49.354
		c-9.381,30.792,28.849,86.177,41.381,114.955c17.935,41.187,33.466,83.656,53.023,124.114
		c45.023,93.142,108.51,171.793,167.325,255.453c2.859,0.725,10.153,14.097,21.654,12.867c13-1.389,5.958-17.946,14.77-21.965
		c27.375-12.483,50.295,26.389,74.271,43.431c16.149-16.911,15.156-40.455,36.71-57.881c22.757-18.398,37.42-17.876,40.575-50.972
		c6.066-63.624-61.347-78.325-81.465-129.298c45.111,13.967,80.801,55.566,124.132,69.596
		c10.275-28.314,44.245-11.699,54.621-26.778c11.974-17.401-10.93-34.438,5.73-57.518c18.721-25.937,35.162-15.641,15.857-51.948
		c-21.386-40.22-81.763-47.58-99.246-83.491c35.637-8.066,72.232,10.987,103.981,24.547c9.861,4.211,30.105,20.245,42.357,13.295
		c23.92-13.571-1.024-33.307-7.551-50.556c28.997-30.221,123.37-11.274,87.994-79.669
		C1789.775,1181.823,1710.028,1180.832,1660.813,1173.374z"/>
	<path style="fill:#FFDC75;" d="M1101.589,1346.866c-3.075-31.237,3.33-98.23-19.863-120.551
		c-25.251,24.881-24.746,74.865-61.558,90.852c-1.506-25.152,12.032-54.795,12.696-82.38
		c-52.15-7.057-85.34,152.369-140.257,130.166c7.49-51.562,108.226-134.693,87.965-186.539
		c-48.344,2.343-93.813,54.284-127.247,83.753c-82.647,72.846-162.179,149.338-249.384,216.911
		c-39.346,30.489-108.508,70.205-106.673,128.436c2.426,76.964,75.613,14.442,115.658,26.708
		c2.703,18.245-9.465,47.631,18.035,47.83c14.086,0.102,23.954-23.763,30.514-32.245c21.121-27.309,43.799-61.776,78.85-72.093
		c2.227,39.878-46.916,75.72-45.999,121.262c0.828,41.113,10.17,24.112,39.155,37.643c25.793,12.04,14.091,38.076,33.025,47.44
		c16.407,8.114,37.979-22.945,60.746-3.224c31.006-33.362,41.909-87.078,74.501-121.252c7.263,54.317-44.448,99.996-8.155,152.604
		c18.879,27.366,31.429,19.768,60.266,24.749c27.313,4.717,37.916,25.763,60.258,32.664c12.636-26.563,13.716-71.676,43.703-74.11
		c9.653-0.784,11.569,17.106,23.599,11.987c10.643-4.529,10.499-19.76,12.642-21.786c10.609-101.713,27.736-201.329,21.68-304.604
		C1113.117,1436.227,1105.99,1391.573,1101.589,1346.866z"/>
	<path style="fill:#FFDC75;" d="M828.106,1190.889c28.056-14.073,92.891-32.118,105.409-61.773
		c-32.282-14.649-78.759,3.747-106.885-24.883c22.94-10.425,55.465-8.417,81.453-17.691
		c-12.115-51.211-172.839-25.022-171.806-84.249c50.818-11.499,164.544,52.726,205.676,15.22
		c-19.524-44.289-84.316-68.107-123.815-88.748c-97.639-51.026-197.565-97.837-291.917-155.009
		c-42.571-25.796-104.447-76.115-158.147-53.519c-70.975,29.865,13.635,75.763,16.545,117.544
		c-16.062,9.065-47.858,8.245-38.181,33.987c4.956,13.186,30.772,13.839,41.043,16.921c33.067,9.923,73.374,18.731,95.574,47.751
		c-36.427,16.38-87.508-16.641-129.692,0.547c-38.081,15.516-18.862,18.14-21.097,50.05c-1.99,28.395-30.491,26.808-32.442,47.841
		c-1.69,18.226,35.039,27.225,24.794,55.549c42.262,16.98,96.315,7.894,139.904,26.063c-48.099,26.259-109.284-5.631-145.378,47.114
		c-18.776,27.437-7.182,36.428-1.49,65.133c5.391,27.188-10.452,44.633-8.882,67.963c29.327,2.27,71.827-12.9,84.854,14.22
		c4.193,8.729-11.819,16.934-2.727,26.328c8.044,8.311,22.211,2.715,24.871,3.988c98.752-26.573,197.884-46.308,292.119-88.997
		C748.823,1233.697,787.951,1211.03,828.106,1190.889z"/>
	
		<ellipse transform="matrix(0.9661 -0.2582 0.2582 0.9661 -235.8187 310.6655)" style="fill:#72331E;" cx="1064.808" cy="1053.105" rx="109.487" ry="109.487"/>
	<path style="fill:#8D462F;" d="M1111.064,975.537c-22.621-9.104-39.562-36.79-67.777-20.925
		c-7.042,3.959-38.096,30.71-35.193,29.839c-18.774,6.048-12.993,21.847-15.6,35.861c-2.693,14.471-14.394,24.589-11.004,40.665
		c1.705,8.082,9.39,32.151,15.216,37.46c4.38,3.991,15.784,5.248,21.539,8.398c6.898,3.777,12.829,9.311,19.737,13.101
		c21.051,11.547,27.807,2.326,47.367-5.373c23.222-9.141,38.399-9.409,51.188-33.106
		C1157.362,1042.87,1155.498,993.421,1111.064,975.537z"/>
	<path style="fill:#97583E;" d="M1094.359,990.966c-14.551-4.973-25.448-20.093-43.597-11.429
		c-4.53,2.163-24.505,16.773-22.637,16.298c-12.077,3.303-8.358,11.932-10.035,19.585c-1.732,7.904-9.259,13.429-7.078,22.21
		c1.096,4.414,6.039,17.559,9.786,20.458c2.818,2.18,10.154,2.866,13.855,4.587c4.437,2.063,8.252,5.085,12.696,7.155
		c13.54,6.307,17.887,1.271,30.468-2.934c14.937-4.993,24.7-5.139,32.926-18.081
		C1124.14,1027.741,1122.941,1000.734,1094.359,990.966z"/>
</g>
</svg>
